<?xml version="1.0" standalone="no"?>
<!DOCTYPE svg PUBLIC "-//W3C//DTD SVG 20010904//EN"
 "http://www.w3.org/TR/2001/REC-SVG-20010904/DTD/svg10.dtd">
<svg version="1.0" xmlns="http://www.w3.org/2000/svg"
 width="1143.000000pt" height="1168.000000pt" viewBox="0 0 1143.000000 1168.000000"
 preserveAspectRatio="xMidYMid meet">

<g transform="translate(0.000000,1168.000000) scale(0.100000,-0.100000)"
fill="#000000" stroke="none">
<path d="M5630 11614 c-17 -15 -42 -49 -56 -76 -28 -55 -67 -195 -58 -209 9
-16 130 -67 187 -80 70 -15 129 -1 153 37 71 108 -42 354 -164 354 -18 0 -43
-10 -62 -26z"/>
<path d="M5324 11317 c42 -187 51 -278 51 -502 0 -255 -12 -329 -75 -463 -29
-62 -29 -63 -7 -56 75 23 134 84 203 209 60 109 132 185 197 210 48 18 50 18
84 0 45 -25 71 -56 137 -169 53 -90 99 -146 135 -165 14 -8 12 5 -13 77 -28
82 -30 96 -30 237 0 121 7 187 32 341 18 105 32 211 32 235 l-1 44 -26 -55
c-38 -79 -134 -172 -201 -194 -85 -29 -190 -20 -277 23 -81 40 -166 120 -214
201 -23 39 -31 47 -27 27z"/>
<path d="M4390 11165 c0 -57 -26 -150 -57 -207 -51 -94 -135 -147 -248 -155
-119 -9 -248 33 -353 117 l-50 39 35 -52 c80 -118 133 -263 228 -626 62 -242
80 -301 89 -301 3 0 14 44 26 98 33 147 60 243 80 282 51 99 167 153 256 120
15 -6 61 -44 103 -84 103 -99 134 -113 189 -82 23 12 23 13 -32 54 -126 96
-170 212 -196 517 -12 133 -38 265 -59 303 -8 13 -10 8 -11 -23z"/>
<path d="M6986 11073 c-15 -214 -71 -394 -208 -662 l-98 -194 42 40 c59 53
152 114 218 143 65 27 181 38 232 21 102 -34 177 -118 221 -249 l24 -71 6 112
c15 249 86 410 305 686 l27 34 -35 -8 c-50 -11 -84 -30 -180 -100 -126 -92
-204 -113 -285 -76 -69 31 -105 84 -168 248 -29 74 -81 173 -92 173 -1 0 -5
-44 -9 -97z"/>
<path d="M2465 10610 c-173 -39 -234 -254 -106 -375 29 -27 38 -29 104 -29
175 0 265 122 226 305 -14 62 -15 64 -60 80 -54 21 -123 28 -164 19z"/>
<path d="M8846 10560 c-115 -35 -176 -174 -115 -262 35 -51 81 -98 113 -115
43 -23 141 -19 173 7 65 51 103 139 103 238 0 49 -3 58 -34 86 -53 50 -158 70
-240 46z"/>
<path d="M2837 10427 c7 -124 -9 -234 -43 -304 -28 -58 -59 -85 -120 -103 -40
-12 -50 -10 -205 43 -90 30 -179 58 -198 61 -33 6 -33 5 40 -72 178 -187 312
-373 498 -692 37 -65 61 -97 62 -85 1 11 2 121 3 245 1 212 2 227 23 267 29
54 77 88 123 87 20 -1 74 -21 128 -48 113 -57 173 -67 216 -37 l30 20 -30 11
c-137 49 -218 146 -349 417 -65 135 -147 271 -174 287 -5 3 -7 -39 -4 -97z"/>
<path d="M8492 10449 c-55 -203 -178 -389 -384 -579 -45 -41 -107 -99 -137
-128 l-56 -53 50 6 c55 8 95 20 235 72 82 31 110 37 206 41 l111 4 28 -37 c37
-48 42 -108 21 -256 -16 -113 -13 -160 12 -205 9 -17 11 -16 17 11 55 253 144
381 429 622 90 76 163 139 162 140 -2 2 -63 -15 -137 -37 -294 -89 -322 -92
-380 -43 -59 50 -81 122 -100 318 -6 73 -18 137 -29 163 -10 23 -21 42 -23 42
-2 0 -13 -36 -25 -81z"/>
<path d="M5444 9970 c-178 -24 -277 -84 -318 -192 l-17 -44 -59 0 c-38 -1 -73
-8 -100 -22 l-42 -20 -29 64 c-16 35 -29 67 -29 72 0 18 -60 91 -79 97 -15 4
-34 -3 -63 -24 -61 -43 -176 -90 -376 -151 -212 -65 -333 -122 -347 -164 -8
-23 -5 -36 18 -77 35 -64 35 -91 -3 -123 -68 -57 -178 -59 -347 -6 l-102 32
-68 -55 c-37 -29 -115 -87 -173 -127 -127 -89 -271 -204 -323 -257 l-38 -40
26 -54 c57 -124 14 -228 -113 -273 -72 -26 -188 -26 -284 -1 -24 6 -28 3 -47
-41 -33 -74 -117 -209 -195 -314 -196 -264 -228 -314 -210 -325 78 -46 107
-95 107 -183 -1 -55 -4 -68 -30 -100 -42 -52 -76 -66 -171 -70 l-83 -4 -30
-60 c-82 -162 -158 -384 -194 -566 -20 -100 -17 -112 61 -228 62 -92 72 -130
60 -228 -10 -79 -26 -94 -121 -111 -44 -8 -92 -20 -108 -26 l-27 -12 2 -405 3
-406 40 -9 c162 -35 190 -56 191 -144 0 -34 9 -82 22 -116 12 -32 22 -64 22
-72 0 -8 -17 -23 -38 -34 -117 -60 -145 -184 -84 -368 17 -50 60 -156 96 -236
63 -142 106 -256 106 -285 0 -9 6 -12 16 -8 148 57 230 12 290 -157 19 -54 10
-75 -41 -97 -24 -10 -51 -30 -60 -43 -14 -22 -14 -29 -2 -64 32 -93 117 -221
331 -501 107 -139 110 -142 147 -142 21 0 62 9 91 21 48 19 131 29 143 17 2
-2 16 -44 30 -94 89 -309 304 -547 632 -701 67 -31 101 -42 114 -36 9 4 32 28
51 53 52 69 75 72 164 25 41 -21 98 -60 127 -86 l52 -46 -18 -55 c-33 -107
-22 -128 89 -163 44 -13 165 -53 269 -89 263 -91 425 -118 580 -98 64 9 72 8
93 -11 25 -24 52 -103 52 -156 0 -56 18 -109 50 -145 l30 -34 -31 -6 c-83 -16
-114 -74 -124 -231 -3 -55 -17 -176 -31 -270 -45 -300 -53 -386 -51 -562 l2
-171 40 -58 c222 -323 926 -392 1200 -118 63 62 117 168 136 262 18 95 6 251
-35 447 -53 255 -58 297 -57 454 l1 145 -32 34 c-18 18 -60 50 -93 70 l-59 36
32 8 c43 11 61 50 73 156 16 152 34 169 152 151 105 -17 291 -5 407 24 52 14
176 54 275 90 99 35 207 73 240 83 47 15 63 25 74 48 12 26 11 36 -8 90 -28
80 -28 116 -1 116 28 0 77 26 119 63 38 33 89 57 121 57 13 0 46 -25 82 -61
l61 -60 41 16 c66 26 206 104 274 152 67 47 161 126 285 237 86 77 89 85 57
168 -11 29 -20 73 -20 98 l0 45 113 58 c124 64 159 70 244 41 34 -12 48 -13
51 -5 6 17 113 160 204 273 94 116 174 235 207 306 21 45 23 56 13 89 -6 21
-30 63 -53 93 -37 49 -41 59 -37 100 6 62 26 100 68 128 32 22 42 23 105 18
39 -4 84 -9 101 -12 l31 -6 40 104 c23 56 71 198 108 313 36 116 80 248 96
294 16 46 27 92 24 102 -4 10 -33 39 -66 65 -90 69 -113 128 -89 229 12 51 43
78 124 105 36 12 76 30 90 41 l26 20 0 409 c0 471 11 424 -108 439 -112 14
-133 34 -125 116 4 38 -1 66 -21 118 -14 37 -26 71 -26 76 0 4 11 13 24 19 14
6 43 28 66 48 101 92 90 248 -37 527 -30 67 -72 160 -93 207 l-38 85 -71 6
c-81 8 -155 40 -184 81 -27 36 -37 108 -22 152 7 20 36 61 64 91 28 31 51 61
51 66 0 5 -42 64 -94 130 -52 67 -156 207 -231 312 -76 106 -141 196 -145 200
-4 5 -33 1 -65 -9 -83 -24 -176 -16 -245 22 -103 56 -135 153 -85 261 l27 58
-70 65 c-74 70 -168 140 -441 331 l-174 121 -56 -61 c-53 -57 -60 -61 -101
-61 -54 0 -142 23 -176 45 -14 9 -33 30 -44 47 -18 30 -18 32 -1 67 24 47 33
88 26 111 -9 29 -139 85 -419 180 -146 49 -292 103 -325 120 l-61 30 -14 -22
c-8 -13 -25 -50 -37 -83 -13 -37 -37 -75 -62 -100 -38 -38 -40 -39 -48 -19
-11 30 -29 34 -117 27 l-77 -6 -34 84 c-19 46 -45 101 -59 122 -24 35 -27 37
-81 38 -31 0 -150 2 -266 4 -115 1 -238 -1 -271 -5z m446 -178 c-33 -32 -60
-66 -60 -76 0 -10 28 -47 62 -82 l61 -64 -303 0 -304 0 62 61 c80 79 81 95 5
165 l-58 54 297 0 297 0 -59 -58z m-1185 -103 c-37 -34 -45 -48 -45 -77 0 -32
8 -44 67 -98 l67 -62 -40 -7 c-79 -14 -158 -37 -274 -80 -206 -77 -264 -86
-256 -41 7 39 22 55 69 77 48 22 52 27 55 62 6 68 -34 85 -109 46 -22 -11 -52
-19 -67 -17 l-26 3 40 42 c55 57 144 97 294 128 69 15 154 35 190 45 36 10 68
18 72 19 4 0 -13 -18 -37 -40z m2129 -13 c111 -29 223 -84 280 -140 48 -45 38
-55 -31 -32 -58 20 -83 20 -111 0 -20 -14 -21 -17 -8 -43 8 -15 33 -40 55 -56
23 -15 41 -28 41 -29 0 -1 4 -15 9 -32 17 -60 7 -60 -205 9 -109 36 -235 73
-279 83 l-79 17 78 72 c69 63 78 75 73 97 -5 19 -20 31 -51 44 -24 10 -42 22
-40 26 11 18 173 8 268 -16z m-1651 -75 c4 -4 12 -34 17 -66 5 -32 13 -62 18
-67 5 -5 90 -11 188 -12 98 -2 240 -7 314 -11 236 -13 356 21 408 115 25 47
29 50 67 50 37 -1 43 -5 74 -51 70 -103 232 -221 384 -280 43 -16 126 -42 185
-56 94 -24 128 -27 282 -27 96 -1 196 2 221 6 l47 7 4 -58 c8 -106 77 -209
203 -300 27 -20 113 -77 189 -126 76 -49 165 -113 197 -143 67 -61 72 -62 163
-3 56 35 103 40 141 15 23 -15 24 -21 23 -112 -1 -351 248 -696 587 -812 42
-15 50 -21 48 -41 -1 -13 -6 -69 -12 -124 -8 -69 -8 -131 -1 -196 34 -335 156
-589 351 -731 l69 -50 -29 -42 c-106 -154 -172 -380 -172 -586 -1 -125 19
-220 63 -301 29 -56 97 -130 129 -141 11 -4 10 -11 -8 -36 -223 -307 -333
-512 -429 -796 l-34 -99 20 -41 c11 -23 37 -70 60 -105 44 -71 49 -107 25
-169 l-16 -39 -64 0 c-52 0 -76 -5 -130 -32 -227 -112 -456 -481 -457 -738 l0
-73 -37 -5 c-199 -30 -289 -71 -611 -275 -102 -65 -204 -127 -227 -139 -50
-25 -53 -38 -23 -133 25 -78 25 -119 2 -148 -17 -22 -18 -22 -77 -5 -85 24
-351 29 -463 9 -214 -38 -385 -118 -503 -234 -42 -41 -81 -84 -87 -94 -10 -19
-11 -19 -58 -2 -75 28 -170 87 -274 170 -140 112 -183 131 -300 131 -83 0
-102 -3 -150 -27 -30 -15 -86 -53 -124 -85 -183 -155 -246 -189 -363 -200
l-63 -6 0 45 c0 29 -9 60 -25 89 -14 24 -32 59 -40 77 -8 17 -18 32 -21 32 -3
0 -96 21 -207 46 -111 25 -240 52 -287 60 -148 24 -318 16 -446 -21 -17 -5
-24 1 -39 32 -18 37 -18 40 0 103 9 36 18 74 19 85 2 38 -315 268 -502 363
-121 62 -216 96 -323 117 -45 8 -84 16 -85 18 -1 1 2 24 7 51 26 141 -44 294
-261 566 -51 63 -115 148 -143 187 l-51 73 -62 -35 c-67 -38 -89 -42 -117 -21
-17 13 -17 18 -3 72 88 344 -62 817 -358 1130 -76 80 -70 102 46 160 87 44
105 69 89 127 -18 62 -28 175 -30 321 -1 71 -4 145 -6 165 -2 20 -7 61 -10 91
-11 103 -43 179 -98 232 -42 42 -48 52 -42 76 16 68 73 106 178 118 l57 7 46
141 c58 180 109 379 123 479 13 95 14 277 1 332 -10 45 -6 50 53 59 138 22
269 135 422 365 57 86 124 181 150 211 52 63 53 75 4 155 -40 64 -46 104 -24
143 17 29 19 29 129 35 256 14 516 139 667 321 53 65 118 190 139 268 l12 47
227 0 c181 0 249 4 343 20 265 46 425 152 489 323 l21 57 72 3 c74 4 106 1
119 -11z m-1553 -371 c0 -22 -30 -44 -72 -54 -38 -9 -53 -39 -36 -73 21 -42
41 -49 95 -34 66 20 133 26 133 12 0 -5 -19 -34 -43 -63 -29 -36 -85 -81 -172
-139 -72 -47 -152 -110 -179 -139 l-49 -52 -33 16 c-19 8 -34 21 -34 28 0 7
16 35 35 62 36 51 43 83 25 117 -14 25 -50 24 -100 -1 -22 -11 -52 -20 -67
-20 -26 0 -21 7 62 90 124 125 243 205 370 251 64 23 65 23 65 -1z m4210 -36
c26 -14 92 -66 146 -116 54 -50 123 -104 152 -120 28 -16 52 -31 52 -33 0 -2
-3 -10 -6 -19 -9 -23 -37 -20 -92 11 -60 33 -98 28 -104 -16 -6 -39 7 -69 46
-111 33 -34 52 -81 39 -93 -19 -19 -300 167 -471 311 -51 42 -52 45 -36 63 21
23 48 24 104 4 61 -21 87 -19 106 10 24 36 14 57 -43 90 -58 33 -64 42 -30 47
42 8 90 -3 137 -28z m-5144 -758 c3 -8 -10 -36 -30 -62 -41 -53 -44 -76 -16
-104 33 -33 77 -26 119 19 33 36 53 45 89 42 7 -1 -1 -21 -22 -53 -18 -29 -62
-102 -97 -162 -71 -120 -152 -212 -216 -245 -23 -11 -45 -21 -48 -21 -14 0 -2
60 20 95 42 68 30 109 -31 107 -46 -2 -68 -22 -90 -78 -21 -54 -34 -48 -34 16
0 78 33 137 158 280 40 46 87 106 104 132 25 39 37 48 60 48 16 0 31 -7 34
-14z m6015 -54 c89 -57 189 -200 249 -354 36 -93 37 -100 8 -96 -14 2 -28 15
-36 33 -31 72 -37 80 -69 83 -43 4 -73 -13 -73 -42 0 -13 12 -49 26 -81 33
-71 23 -85 -35 -55 -70 35 -118 87 -198 214 -42 66 -93 141 -114 166 -29 35
-35 50 -28 63 16 28 49 20 95 -23 24 -22 48 -40 52 -40 5 0 21 9 35 20 14 11
30 20 36 20 24 0 10 53 -23 86 l-34 34 32 0 c18 0 52 -12 77 -28z m-6650 -988
c10 -13 10 -23 -4 -62 -34 -93 -13 -137 48 -101 48 29 74 61 83 104 l8 40 22
-35 c49 -79 23 -235 -69 -410 -21 -41 -57 -95 -78 -120 l-40 -45 -1 101 c0 83
-3 103 -16 108 -53 20 -89 -9 -110 -89 -8 -33 -19 -64 -24 -69 -15 -15 -31 33
-31 98 -1 54 6 82 42 168 63 154 99 259 99 296 0 29 3 32 29 32 16 0 34 -7 42
-16z m7243 -46 c52 -61 69 -110 130 -383 14 -60 28 -120 32 -132 9 -32 -11
-29 -47 6 -24 25 -29 38 -29 79 0 45 -2 50 -26 56 -25 7 -74 -14 -74 -32 -3
-50 -21 -146 -30 -157 -7 -8 -25 -15 -40 -15 -25 0 -28 4 -35 47 -9 59 -40
163 -97 323 -25 69 -48 140 -51 158 -6 30 -5 32 21 32 41 0 89 -34 112 -80 23
-45 20 -44 55 -28 40 18 42 58 9 171 -9 29 27 6 70 -45z m-7313 -1200 c6 -34
7 -141 3 -291 l-7 -237 -54 60 c-71 78 -98 80 -172 14 l-51 -46 0 281 0 281
55 -45 c31 -24 67 -48 80 -51 40 -10 72 18 91 81 18 55 18 56 31 31 7 -14 18
-49 24 -78z m7395 15 c53 -55 84 -56 147 -8 25 19 47 40 50 47 3 7 6 -114 6
-270 l1 -284 -52 46 c-65 57 -101 66 -134 35 -14 -13 -30 -42 -37 -65 -14 -50
-25 -55 -49 -23 -24 32 -26 114 -8 315 7 84 10 185 8 225 -5 71 -5 73 10 49 9
-14 35 -44 58 -67z m-125 -1080 c10 -12 13 -41 11 -104 -3 -86 -2 -89 22 -95
54 -13 70 -3 91 60 15 43 26 61 44 68 14 5 28 5 33 0 4 -4 -5 -64 -22 -133
-60 -253 -94 -333 -164 -397 -49 -44 -59 -29 -27 44 28 63 27 82 -5 90 -39 10
-76 -7 -100 -46 -12 -19 -31 -45 -43 -57 -24 -27 -71 -31 -71 -7 0 39 37 171
81 287 26 70 55 162 64 205 8 42 18 83 20 90 6 18 50 15 66 -5z m-7169 -45
c56 -74 76 -129 133 -370 18 -78 37 -151 40 -161 7 -16 3 -18 -26 -15 -29 2
-37 10 -56 46 -12 24 -27 50 -33 58 -22 26 -120 12 -120 -17 0 -5 11 -27 25
-47 25 -37 34 -82 15 -82 -23 0 -92 82 -120 142 -31 65 -122 406 -113 421 7
12 50 8 60 -5 6 -7 13 -35 16 -62 6 -56 19 -68 67 -60 55 10 58 17 51 129 -5
70 -3 77 17 66 11 -6 30 -25 44 -43z m455 -1060 c51 -30 124 -117 185 -219 31
-52 75 -115 97 -141 24 -26 37 -49 31 -53 -5 -3 -44 -1 -86 4 -41 6 -86 8
-100 5 -33 -8 -40 -46 -21 -107 9 -28 15 -53 13 -55 -11 -10 -174 162 -221
232 -61 94 -137 241 -128 250 11 10 48 7 61 -6 7 -7 12 -20 12 -29 0 -9 8 -27
19 -40 17 -22 20 -22 56 -8 58 22 62 37 31 102 -33 72 -35 101 -3 92 12 -4 36
-16 54 -27z m6264 -57 c-12 -22 -21 -56 -21 -75 0 -28 4 -35 27 -40 46 -12 80
11 110 73 l27 56 9 -40 c12 -47 -2 -108 -37 -163 -13 -20 -67 -86 -121 -147
-54 -60 -104 -125 -113 -142 -18 -37 -24 -40 -46 -17 -20 19 -20 12 5 78 20
52 21 57 5 81 -26 40 -75 35 -123 -14 -34 -36 -55 -46 -89 -42 -7 0 20 54 58
119 124 208 188 285 278 336 l45 26 3 -24 c2 -14 -6 -43 -17 -65z m-753 -767
c33 -23 27 -48 -23 -97 -47 -46 -56 -79 -32 -109 20 -26 40 -26 90 -1 27 13
61 23 75 21 26 -3 23 -7 -58 -88 -103 -104 -191 -168 -302 -219 -100 -46 -138
-57 -138 -38 0 24 24 46 64 59 53 18 68 43 53 88 -16 46 -42 49 -117 16 -59
-27 -104 -33 -115 -16 -13 21 129 151 274 250 82 56 159 112 172 126 27 28 28
29 57 8z m-4662 -79 c27 -13 76 -47 109 -75 139 -117 220 -180 232 -180 16 0
17 -22 1 -38 -17 -17 -60 -15 -115 7 -55 21 -82 20 -100 -5 -17 -23 -17 -69 1
-83 8 -6 33 -17 56 -24 23 -7 41 -16 41 -22 -2 -17 -48 -24 -93 -13 -61 13
-109 44 -223 143 -55 48 -120 101 -145 117 -48 31 -55 45 -28 61 13 9 29 5 72
-17 30 -15 65 -26 78 -24 20 3 23 9 26 56 3 50 1 56 -33 88 l-36 34 53 0 c37
0 69 -8 104 -25z m920 -526 c38 -12 112 -38 165 -59 101 -41 182 -64 261 -75
59 -8 56 -17 -27 -84 -35 -29 -67 -61 -70 -72 -9 -26 17 -55 61 -71 66 -24 37
-33 -92 -30 -138 4 -325 77 -418 163 -45 42 -48 48 -28 49 12 0 39 -7 59 -15
19 -8 47 -15 61 -15 26 0 62 25 62 43 0 5 -27 35 -60 67 -48 46 -60 64 -60 89
0 17 4 31 9 31 5 0 40 -10 77 -21z m2754 -4 c0 -42 -27 -83 -75 -110 -46 -27
-49 -40 -17 -77 19 -22 39 -22 109 -2 30 9 57 14 59 11 9 -9 -46 -65 -94 -95
-26 -17 -81 -42 -122 -56 -73 -24 -361 -88 -368 -81 -2 1 11 13 28 25 38 27
63 75 56 105 -3 12 -35 50 -70 83 l-65 60 60 7 c55 6 101 21 374 119 55 20
106 36 113 36 6 0 12 -11 12 -25z m-1315 -309 c34 -15 35 -16 35 -73 0 -78 23
-180 53 -239 14 -27 53 -82 87 -122 l62 -74 -29 -41 c-82 -120 -209 -226 -315
-261 -74 -26 -85 -20 -202 101 -62 65 -102 97 -133 109 -37 14 -42 20 -37 38
14 48 48 116 103 206 32 52 68 114 80 137 24 48 51 152 51 201 l0 32 105 0
c70 0 117 -5 140 -14z m-93 -1521 c26 -14 56 -25 68 -25 12 0 20 -6 20 -17 -1
-49 -31 -233 -44 -271 -16 -44 -62 -112 -76 -112 -23 0 -71 57 -91 108 -16 43
-22 80 -22 152 -1 178 38 222 145 165z"/>
<path d="M1596 9415 c3 -22 20 -94 36 -160 50 -197 39 -286 -41 -341 -34 -23
-43 -24 -191 -24 -173 0 -217 -8 -262 -49 l-32 -28 72 -16 c212 -48 402 -176
682 -461 41 -42 78 -76 82 -76 18 0 6 84 -32 220 -46 167 -52 258 -21 326 23
51 43 55 201 43 63 -5 135 -6 160 -3 46 7 106 31 97 40 -3 3 -31 12 -63 21
-187 48 -329 153 -593 438 l-102 110 7 -40z"/>
<path d="M9721 9344 c-69 -133 -170 -216 -428 -352 -83 -44 -183 -101 -224
-128 l-74 -49 195 -6 c108 -3 212 -12 234 -19 87 -27 146 -83 162 -153 4 -22
-3 -44 -36 -100 -76 -131 -96 -233 -54 -267 18 -15 17 -15 32 36 19 65 86 159
149 209 64 50 180 110 350 179 101 41 233 103 233 109 0 1 -60 2 -132 3 -214
1 -331 49 -387 159 -39 75 -35 121 21 238 60 125 67 158 39 186 -12 12 -27 21
-33 21 -7 0 -28 -30 -47 -66z"/>
<path d="M715 8014 c11 -59 32 -93 105 -169 82 -86 105 -139 97 -223 -10 -118
-48 -152 -239 -213 -103 -33 -136 -48 -170 -80 l-43 -38 80 -1 c166 -2 318
-43 591 -160 162 -70 298 -120 325 -120 17 0 -6 31 -101 140 -102 117 -142
186 -160 277 -11 56 -11 65 7 95 30 51 74 74 195 103 123 28 184 52 210 81 16
19 13 19 -125 19 -217 0 -316 35 -575 204 -75 48 -152 96 -171 106 l-34 17 8
-38z"/>
<path d="M10574 7951 c-29 -26 -87 -66 -130 -88 -122 -63 -179 -80 -594 -178
-63 -15 -119 -30 -123 -34 -4 -5 27 -18 70 -30 278 -79 351 -115 397 -193 34
-59 41 -93 24 -116 -7 -11 -45 -55 -83 -97 -103 -115 -131 -165 -118 -215 7
-28 19 -25 33 10 15 36 65 82 119 110 70 35 183 60 391 85 232 28 259 34 315
62 l39 21 -34 6 c-173 34 -274 72 -348 133 -56 46 -75 90 -70 163 5 68 33 126
98 200 82 96 103 144 84 194 -9 23 -13 21 -70 -33z"/>
<path d="M434 7884 c-105 -38 -159 -152 -132 -278 9 -42 15 -50 61 -76 95 -54
216 -34 288 48 60 68 73 137 43 226 -14 41 -23 51 -59 67 -60 26 -150 32 -201
13z"/>
<path d="M10843 7838 c-55 -12 -126 -75 -149 -133 -20 -54 -15 -161 9 -199 21
-31 96 -56 169 -56 141 0 212 75 212 222 0 91 -14 117 -76 146 -52 25 -108 32
-165 20z"/>
<path d="M325 6360 c3 -5 50 -36 103 -67 121 -72 177 -127 197 -196 43 -145 1
-234 -147 -308 -107 -53 -141 -86 -162 -156 l-7 -22 68 20 c286 84 557 88 861
11 62 -15 112 -26 112 -25 0 2 -6 18 -14 36 -20 50 -81 101 -181 154 -109 58
-166 112 -188 178 -38 110 -10 161 133 245 102 59 145 92 160 121 10 17 8 17
-25 3 -125 -52 -292 -56 -560 -14 -189 29 -362 40 -350 20z"/>
<path d="M10035 6359 c28 -48 87 -106 163 -160 48 -34 109 -83 136 -108 46
-44 96 -128 96 -162 0 -32 -91 -117 -188 -177 -53 -33 -115 -79 -137 -102
l-40 -41 48 20 c143 61 335 65 662 12 105 -17 210 -31 235 -30 l45 0 -62 23
c-173 64 -262 201 -234 359 20 117 114 265 209 331 24 16 41 30 40 32 -2 1
-41 -9 -88 -22 -129 -38 -308 -51 -487 -36 -131 11 -334 47 -387 68 -15 6 -17
4 -11 -7z"/>
<path d="M1307 4972 c-107 -88 -253 -156 -407 -189 -63 -13 -130 -18 -257 -18
l-172 0 32 -33 c38 -40 58 -51 192 -106 56 -23 118 -55 138 -70 44 -34 77 -99
77 -153 0 -44 -27 -89 -134 -227 -30 -37 -66 -90 -81 -117 l-26 -49 78 36
c330 154 609 242 878 279 l50 7 -47 24 c-26 13 -98 37 -160 54 -138 37 -182
54 -230 87 -37 25 -88 109 -88 145 0 36 43 103 117 180 79 84 108 133 95 168
-8 21 -10 20 -55 -18z"/>
<path d="M9927 4971 c14 -35 33 -63 163 -231 52 -68 87 -145 96 -214 11 -79
-46 -119 -235 -167 -117 -30 -221 -73 -229 -96 -3 -10 5 -11 30 -5 18 4 83 7
143 7 176 0 260 -29 494 -169 133 -79 231 -126 267 -126 9 0 -13 36 -57 92
-81 106 -131 197 -154 286 -14 54 -14 66 -1 96 17 40 75 86 138 108 24 9 79
28 123 43 60 21 91 39 123 70 23 23 42 46 42 51 0 5 -71 9 -158 10 -214 1
-259 14 -537 155 -121 61 -230 115 -241 120 -22 8 -22 7 -7 -30z"/>
<path d="M407 4536 c-68 -25 -101 -61 -123 -135 -31 -101 -4 -177 80 -226 84
-49 184 -42 253 18 49 43 65 86 64 171 -1 86 -16 110 -92 148 -67 34 -132 42
-182 24z"/>
<path d="M10805 4482 c-118 -57 -171 -201 -116 -314 32 -67 52 -81 122 -86
192 -14 303 131 242 318 -14 43 -23 55 -57 72 -57 29 -141 34 -191 10z"/>
<path d="M9390 3758 c1 -38 33 -156 69 -251 45 -117 66 -236 56 -305 -10 -65
-41 -75 -220 -72 -195 4 -210 2 -236 -19 l-24 -19 45 -11 c184 -47 263 -100
502 -344 109 -111 200 -199 202 -196 3 3 -11 57 -31 120 -31 97 -37 132 -41
232 -4 114 -3 119 19 144 26 27 79 56 120 66 14 4 86 13 160 22 143 16 217 32
203 44 -5 4 -45 20 -89 36 -225 78 -412 216 -663 488 -40 43 -72 73 -72 65z"/>
<path d="M1846 3675 c-34 -69 -123 -160 -212 -218 -38 -24 -152 -86 -253 -136
-101 -51 -202 -104 -224 -119 l-41 -27 175 -6 c188 -6 227 -15 283 -67 41 -38
56 -82 56 -157 0 -55 -7 -82 -41 -162 -44 -103 -47 -148 -17 -192 15 -21 17
-19 72 54 125 162 309 299 610 455 69 36 126 68 126 72 0 16 -78 23 -237 20
-108 -2 -188 1 -214 8 -85 23 -149 122 -135 209 3 19 28 71 56 116 59 98 68
130 46 174 -9 17 -18 31 -20 31 -2 0 -16 -25 -30 -55z"/>
<path d="M8508 2495 c-3 -219 -4 -232 -27 -278 -35 -71 -69 -89 -156 -84 -53
4 -96 16 -180 51 -110 46 -147 54 -175 36 -17 -10 -19 -9 43 -44 26 -15 77
-55 113 -88 106 -99 188 -237 324 -545 30 -67 56 -121 57 -119 1 1 -2 29 -7
62 -26 160 4 298 84 382 41 44 87 67 163 82 75 15 191 1 296 -35 l68 -23 -93
97 c-181 188 -331 396 -443 613 l-64 123 -3 -230z"/>
<path d="M2742 2588 c-6 -35 -32 -106 -58 -158 -45 -92 -52 -101 -247 -292
-111 -108 -198 -200 -194 -204 19 -19 107 -4 175 30 92 46 144 58 202 45 129
-29 190 -172 177 -417 l-5 -102 27 37 c15 21 84 124 153 228 175 264 267 377
403 494 l50 43 -71 -5 c-53 -3 -91 -13 -155 -42 -144 -64 -179 -74 -260 -75
-66 0 -78 3 -97 23 -35 37 -43 74 -47 233 -3 116 -8 161 -20 188 -10 20 -18
36 -19 36 -2 0 -8 -28 -14 -62z"/>
<path d="M7317 1923 c-14 -43 -36 -114 -48 -158 -43 -158 -102 -239 -195 -265
-69 -20 -120 5 -224 108 -82 81 -110 102 -157 116 -20 6 -16 -4 29 -76 75
-120 134 -250 165 -364 25 -91 28 -113 28 -286 0 -175 1 -185 18 -176 32 17
76 88 113 186 61 159 113 222 196 237 43 8 132 -36 307 -154 68 -46 121 -77
118 -70 -3 8 -33 77 -67 154 -125 282 -205 530 -233 721 -8 52 -17 97 -20 100
-3 3 -16 -30 -30 -73z"/>
<path d="M3947 1810 c-9 -202 -51 -316 -226 -605 -49 -82 -85 -152 -80 -154
25 -8 104 36 171 96 92 83 134 102 217 103 129 0 174 -43 229 -221 40 -131 71
-187 112 -209 13 -7 15 9 16 118 0 181 26 269 159 542 96 198 132 293 124 319
-2 6 -42 -22 -88 -62 -190 -165 -260 -201 -396 -201 l-80 -1 -17 38 c-10 20
-25 70 -33 110 -24 119 -46 185 -75 219 l-27 32 -6 -124z"/>
<path d="M2377 1805 c-120 -42 -163 -185 -91 -301 41 -67 105 -99 197 -99 68
0 70 1 103 40 49 56 70 134 56 204 -14 64 -66 149 -99 162 -35 13 -122 10
-166 -6z"/>
<path d="M8812 1762 c-95 -34 -152 -111 -152 -207 0 -87 44 -155 99 -155 11 0
24 -7 29 -16 8 -14 21 -16 75 -12 137 11 209 94 211 243 1 83 -10 102 -77 137
-57 28 -122 32 -185 10z"/>
</g>
</svg>
